<svg id="Layer_1" data-name="Layer 1" xmlns="http://www.w3.org/2000/svg" width="464.63" height="277.71" viewBox="0 0 464.63 277.71"><defs><style>.cls-1{fill:#ee2053;}</style></defs><path class="cls-1" d="M523.29,544.44l-10.86-21-11.25-21.7L490.4,480.91,479.07,459l-10.7-20.66-11.42-22-10.6-20.51-11.51-22.17-10.57-20.38L412.73,331l-10.48-20.23-11.64-22.45L379,310.74,368.5,331,357,353.28l-10.56,20.38-10.57-20.38L324.27,331l-10.48-20.23-11.63-22.45-11.63,22.45L280.05,331,268.5,353.28l-10.57,20.38-10.56-20.38L235.82,331l-10.48-20.23-11.63-22.45-11.63,22.45L191.59,331l-11.54,22.31-10.57,20.38L158,395.83l-10.61,20.56-11.42,22-10.69,20.7-11.34,21.84-10.78,20.85-11.25,21.7L81,544.44,69.87,566h44.22l11.17-21.56,10.86-21,11.25-21.7,10.78-20.85,11.33-21.84,10.7-20.7,11.41-22,10.66-20.51,11.46-22.17,11.46,22.17,10.65,20.51-11.42,22L213.71,459l-11.34,21.88-10.78,20.85-11.24,21.7-10.87,21L158.32,566h44.22l11.17-21.56,10.86-21,11.25-21.75,10.78-20.8,11.33-21.84,11.3,21.84,10.82,20.85,11.25,21.7,10.86,21,10.87-21,11.24-21.7,10.78-20.85L346.39,459l11.33,21.88,10.78,20.85,11.25,21.7,10.86,20.94L401.78,566H446l-11.16-21.6L424,523.46l-11.25-21.75L402,480.91l-11.34-21.84-10.69-20.7-11.42-22,10.61-20.51,11.5-22.17,11.47,22.17,10.65,20.56,11.37,22,10.74,20.7,11.29,21.84L457,501.76l11.25,21.7,10.87,21L490.23,566H534.5ZM312.86,438.37l-10.7,20.7-10.74-20.7-11.37-22,10.65-20.56,11.46-22.17,11.51,22.17,10.6,20.51Z" transform="translate(-69.87 -288.29)"/></svg>